<svg xmlns="http://www.w3.org/2000/svg" width="317" height="25" viewBox="0 0 317 25" fill="none"><g clip-path="url(#clip0_37_1026)"><path d="M18.9223 3.03888H0V21.9612H18.9223V3.03888Z" fill="#219653"></path><path d="M39.4215 3.03882H20.4993V21.9611H39.4215V3.03882Z" fill="#219653"></path><path d="M59.9206 3.03882H40.9983V21.9611H59.9206V3.03882Z" fill="#219653"></path><path d="M80.4198 3.03882H61.4976V21.9611H80.4198V3.03882Z" fill="#219653"></path><path d="M100.919 3.03882H81.9966V21.9611H100.919V3.03882Z" fill="#219653"></path><path d="M9.46093 15.7914L12.3387 15.0621L13.5411 18.7678L9.46093 15.7914ZM16.0837 11.0017H11.0181L9.46093 6.23175L7.90379 11.0017H2.83813L6.93796 13.9583L5.38082 18.7283L9.48064 15.7717L12.0036 13.9583L16.0837 11.0017Z" fill="white"></path><path d="M29.96 15.7914L32.8377 15.0621L34.0401 18.7678L29.96 15.7914ZM36.5828 11.0017H31.5171L29.96 6.23175L28.4028 11.0017H23.3372L27.437 13.9583L25.8798 18.7283L29.9797 15.7717L32.5026 13.9583L36.5828 11.0017Z" fill="white"></path><path d="M50.459 15.7914L53.3367 15.0621L54.5391 18.7678L50.459 15.7914ZM57.0818 11.0017H52.0161L50.459 6.23175L48.9018 11.0017H43.8362L47.936 13.9583L46.3789 18.7283L50.4787 15.7717L53.0017 13.9583L57.0818 11.0017Z" fill="white"></path><path d="M70.9582 15.7914L73.836 15.0621L75.0384 18.7678L70.9582 15.7914ZM77.581 11.0017H72.5154L70.9582 6.23175L69.4011 11.0017H64.3354L68.4353 13.9583L66.8781 18.7283L70.978 15.7717L73.5009 13.9583L77.581 11.0017Z" fill="white"></path><path d="M91.4573 15.7914L94.335 15.0621L95.5374 18.7678L91.4573 15.7914ZM98.0801 11.0017H93.0144L91.4573 6.23175L89.9001 11.0017H84.8345L88.9343 13.9583L87.3772 18.7283L91.477 15.7717L94 13.9583L98.0801 11.0017Z" fill="white"></path></g><path d="M110.236 7.04688H113.531C114.278 7.04688 114.909 7.16081 115.424 7.38867C115.944 7.61654 116.338 7.95378 116.607 8.40039C116.88 8.84245 117.017 9.38704 117.017 10.0342C117.017 10.4899 116.923 10.9069 116.737 11.2852C116.554 11.6589 116.29 11.9779 115.944 12.2422C115.602 12.502 115.192 12.6956 114.713 12.8232L114.344 12.9668H111.247L111.234 11.8936H113.572C114.045 11.8936 114.44 11.8115 114.754 11.6475C115.069 11.4788 115.306 11.2533 115.465 10.9707C115.625 10.6882 115.704 10.376 115.704 10.0342C115.704 9.65137 115.629 9.31641 115.479 9.0293C115.328 8.74219 115.091 8.52116 114.768 8.36621C114.449 8.20671 114.036 8.12695 113.531 8.12695H111.555V17H110.236V7.04688ZM116.053 17L113.633 12.4883L115.007 12.4814L117.461 16.918V17H116.053ZM123.032 15.7354V11.9277C123.032 11.6361 122.973 11.3831 122.855 11.1689C122.741 10.9502 122.568 10.7816 122.335 10.6631C122.103 10.5446 121.816 10.4854 121.474 10.4854C121.155 10.4854 120.875 10.54 120.633 10.6494C120.396 10.7588 120.209 10.9023 120.073 11.0801C119.94 11.2578 119.874 11.4492 119.874 11.6543H118.61C118.61 11.39 118.678 11.1279 118.815 10.8682C118.951 10.6084 119.147 10.3737 119.403 10.1641C119.662 9.94987 119.972 9.78125 120.332 9.6582C120.697 9.5306 121.102 9.4668 121.549 9.4668C122.087 9.4668 122.561 9.55794 122.971 9.74023C123.386 9.92253 123.709 10.1982 123.942 10.5674C124.179 10.932 124.297 11.39 124.297 11.9414V15.3867C124.297 15.6328 124.318 15.8949 124.359 16.1729C124.404 16.4508 124.47 16.6901 124.557 16.8906V17H123.238C123.174 16.8542 123.124 16.6605 123.087 16.4189C123.051 16.1729 123.032 15.945 123.032 15.7354ZM123.251 12.5156L123.265 13.4043H121.987C121.627 13.4043 121.305 13.4339 121.023 13.4932C120.74 13.5479 120.503 13.6322 120.312 13.7461C120.12 13.86 119.975 14.0036 119.874 14.1768C119.774 14.3454 119.724 14.5436 119.724 14.7715C119.724 15.0039 119.776 15.2158 119.881 15.4072C119.986 15.5986 120.143 15.7513 120.353 15.8652C120.567 15.9746 120.829 16.0293 121.139 16.0293C121.526 16.0293 121.868 15.9473 122.164 15.7832C122.461 15.6191 122.695 15.4186 122.868 15.1816C123.046 14.9447 123.142 14.7145 123.156 14.4912L123.696 15.0996C123.664 15.291 123.577 15.5029 123.436 15.7354C123.295 15.9678 123.105 16.1911 122.868 16.4053C122.636 16.6149 122.358 16.7904 122.034 16.9316C121.715 17.0684 121.355 17.1367 120.954 17.1367C120.453 17.1367 120.013 17.0387 119.635 16.8428C119.261 16.6468 118.97 16.3848 118.76 16.0566C118.555 15.724 118.452 15.3525 118.452 14.9424C118.452 14.5459 118.53 14.1973 118.685 13.8965C118.84 13.5911 119.063 13.3382 119.355 13.1377C119.646 12.9326 119.997 12.7777 120.407 12.6729C120.818 12.568 121.276 12.5156 121.781 12.5156H123.251ZM129.383 9.60352V10.5742H125.384V9.60352H129.383ZM126.738 7.80566H128.002V15.168C128.002 15.4186 128.041 15.6077 128.118 15.7354C128.196 15.863 128.296 15.9473 128.419 15.9883C128.542 16.0293 128.674 16.0498 128.816 16.0498C128.92 16.0498 129.03 16.0407 129.144 16.0225C129.262 15.9997 129.351 15.9814 129.41 15.9678L129.417 17C129.317 17.0319 129.185 17.0615 129.021 17.0889C128.861 17.1208 128.668 17.1367 128.44 17.1367C128.13 17.1367 127.845 17.0752 127.585 16.9521C127.325 16.8291 127.118 16.624 126.963 16.3369C126.813 16.0452 126.738 15.6533 126.738 15.1611V7.80566ZM133.936 17.1367C133.421 17.1367 132.954 17.0501 132.534 16.877C132.12 16.6992 131.762 16.4508 131.461 16.1318C131.165 15.8128 130.937 15.4346 130.778 14.9971C130.618 14.5596 130.538 14.0811 130.538 13.5615V13.2744C130.538 12.6729 130.627 12.1374 130.805 11.668C130.983 11.194 131.224 10.793 131.53 10.4648C131.835 10.1367 132.181 9.88835 132.569 9.71973C132.956 9.55111 133.357 9.4668 133.772 9.4668C134.3 9.4668 134.756 9.55794 135.139 9.74023C135.526 9.92253 135.843 10.1777 136.089 10.5059C136.335 10.8294 136.517 11.2122 136.636 11.6543C136.754 12.0918 136.814 12.5703 136.814 13.0898V13.6572H131.29V12.625H135.549V12.5293C135.531 12.2012 135.462 11.8822 135.344 11.5723C135.23 11.2624 135.048 11.0072 134.797 10.8066C134.546 10.6061 134.205 10.5059 133.772 10.5059C133.485 10.5059 133.22 10.5674 132.979 10.6904C132.737 10.8089 132.53 10.9867 132.357 11.2236C132.184 11.4606 132.049 11.75 131.953 12.0918C131.858 12.4336 131.81 12.8278 131.81 13.2744V13.5615C131.81 13.9124 131.858 14.2428 131.953 14.5527C132.054 14.8581 132.197 15.127 132.384 15.3594C132.575 15.5918 132.806 15.7741 133.074 15.9062C133.348 16.0384 133.658 16.1045 134.004 16.1045C134.451 16.1045 134.829 16.0133 135.139 15.8311C135.449 15.6488 135.72 15.4049 135.952 15.0996L136.718 15.708C136.559 15.9495 136.356 16.1797 136.11 16.3984C135.864 16.6172 135.56 16.7949 135.2 16.9316C134.845 17.0684 134.423 17.1367 133.936 17.1367ZM142.952 15.5645V6.5H144.224V17H143.062L142.952 15.5645ZM137.976 13.3838V13.2402C137.976 12.6751 138.044 12.1624 138.181 11.7021C138.322 11.2373 138.52 10.8385 138.776 10.5059C139.035 10.1732 139.343 9.91797 139.698 9.74023C140.059 9.55794 140.46 9.4668 140.902 9.4668C141.366 9.4668 141.772 9.54883 142.118 9.71289C142.469 9.8724 142.766 10.1071 143.007 10.417C143.253 10.7223 143.447 11.0915 143.588 11.5244C143.729 11.9574 143.827 12.4473 143.882 12.9941V13.623C143.832 14.1654 143.734 14.653 143.588 15.0859C143.447 15.5189 143.253 15.888 143.007 16.1934C142.766 16.4987 142.469 16.7334 142.118 16.8975C141.767 17.057 141.357 17.1367 140.888 17.1367C140.455 17.1367 140.059 17.0433 139.698 16.8564C139.343 16.6696 139.035 16.4076 138.776 16.0703C138.52 15.7331 138.322 15.3366 138.181 14.8809C138.044 14.4206 137.976 13.9215 137.976 13.3838ZM139.247 13.2402V13.3838C139.247 13.7529 139.284 14.0993 139.357 14.4229C139.434 14.7464 139.553 15.0312 139.712 15.2773C139.872 15.5234 140.074 15.7171 140.321 15.8584C140.567 15.9951 140.861 16.0635 141.202 16.0635C141.622 16.0635 141.966 15.9746 142.235 15.7969C142.508 15.6191 142.727 15.3844 142.891 15.0928C143.055 14.8011 143.183 14.4844 143.274 14.1426V12.4951C143.219 12.2445 143.139 12.0029 143.034 11.7705C142.934 11.5335 142.802 11.3239 142.638 11.1416C142.478 10.9548 142.28 10.8066 142.043 10.6973C141.811 10.5879 141.535 10.5332 141.216 10.5332C140.87 10.5332 140.571 10.6061 140.321 10.752C140.074 10.8932 139.872 11.0892 139.712 11.3398C139.553 11.5859 139.434 11.873 139.357 12.2012C139.284 12.5247 139.247 12.8711 139.247 13.2402ZM156.255 13.6504V14.6895H149.064V13.9443L153.521 7.04688H154.553L153.446 9.04297L150.499 13.6504H156.255ZM154.867 7.04688V17H153.603V7.04688H154.867ZM157.561 16.3301C157.561 16.1159 157.627 15.9359 157.759 15.79C157.896 15.6396 158.092 15.5645 158.347 15.5645C158.602 15.5645 158.796 15.6396 158.928 15.79C159.065 15.9359 159.133 16.1159 159.133 16.3301C159.133 16.5397 159.065 16.7174 158.928 16.8633C158.796 17.0091 158.602 17.082 158.347 17.082C158.092 17.082 157.896 17.0091 157.759 16.8633C157.627 16.7174 157.561 16.5397 157.561 16.3301ZM167.528 7.04688V7.75781L163.406 17H162.073L166.188 8.08594H160.801V7.04688H167.528ZM173.509 7.04688L169.36 17.8545H168.273L172.429 7.04688H173.509ZM176.353 12.2627L175.341 12.0029L175.84 7.04688H180.947V8.21582H176.913L176.613 10.9229C176.795 10.818 177.025 10.7201 177.303 10.6289C177.586 10.5378 177.909 10.4922 178.274 10.4922C178.734 10.4922 179.146 10.5719 179.511 10.7314C179.876 10.8864 180.185 11.1097 180.441 11.4014C180.7 11.693 180.899 12.0439 181.035 12.4541C181.172 12.8643 181.24 13.3223 181.24 13.8281C181.24 14.3066 181.174 14.7464 181.042 15.1475C180.915 15.5485 180.721 15.8994 180.461 16.2002C180.201 16.4964 179.873 16.7266 179.477 16.8906C179.085 17.0547 178.622 17.1367 178.089 17.1367C177.688 17.1367 177.308 17.082 176.948 16.9727C176.592 16.8587 176.273 16.6878 175.99 16.46C175.712 16.2275 175.485 15.9404 175.307 15.5986C175.134 15.2523 175.024 14.8467 174.979 14.3818H176.182C176.237 14.7555 176.346 15.07 176.51 15.3252C176.674 15.5804 176.888 15.7741 177.153 15.9062C177.421 16.0339 177.734 16.0977 178.089 16.0977C178.39 16.0977 178.656 16.0452 178.889 15.9404C179.121 15.8356 179.317 15.6852 179.477 15.4893C179.636 15.2933 179.757 15.0563 179.839 14.7783C179.926 14.5003 179.969 14.1882 179.969 13.8418C179.969 13.5273 179.926 13.2357 179.839 12.9668C179.753 12.6979 179.623 12.4632 179.449 12.2627C179.281 12.0622 179.073 11.9072 178.827 11.7979C178.581 11.6839 178.299 11.627 177.98 11.627C177.556 11.627 177.235 11.6839 177.016 11.7979C176.802 11.9118 176.581 12.0667 176.353 12.2627Z" fill="white"></path><line x1="190.582" y1="3.99854" x2="190.582" y2="21.0015" stroke="white" stroke-width="0.680119"></line><path d="M210.449 18.8261L215.684 17.4245L217.871 24.5461L210.449 18.8261ZM222.495 9.62105H213.281L210.449 0.453857L207.617 9.62105H198.403L205.86 15.3032L203.028 24.4704L210.485 18.7882L215.074 15.3032L222.495 9.62105Z" fill="#219653"></path><path d="M235.737 5.22658V19.5H232.806V5.22658H235.737ZM240.129 5.22658V7.53033H228.483V5.22658H240.129ZM243.766 11.2065V19.5H240.943V8.89297H243.599L243.766 11.2065ZM246.962 8.82435L246.913 11.4418C246.776 11.4222 246.609 11.4058 246.413 11.3928C246.223 11.3732 246.05 11.3634 245.893 11.3634C245.495 11.3634 245.148 11.4157 244.854 11.5202C244.567 11.6182 244.325 11.7653 244.129 11.9614C243.939 12.1574 243.796 12.396 243.698 12.677C243.606 12.958 243.554 13.2783 243.541 13.6377L242.972 13.4612C242.972 12.775 243.041 12.1444 243.178 11.5692C243.315 10.9876 243.515 10.4811 243.776 10.0497C244.044 9.6184 244.371 9.28509 244.756 9.04982C245.142 8.81454 245.583 8.6969 246.08 8.6969C246.237 8.6969 246.397 8.70998 246.56 8.73612C246.723 8.75572 246.857 8.78513 246.962 8.82435ZM254.569 16.961V8.89297H257.393V19.5H254.736L254.569 16.961ZM254.883 14.7847L255.716 14.7651C255.716 15.4709 255.635 16.1277 255.471 16.7355C255.308 17.3368 255.063 17.8596 254.736 18.304C254.409 18.7419 253.997 19.085 253.501 19.3333C253.004 19.5752 252.419 19.6961 251.746 19.6961C251.23 19.6961 250.753 19.6242 250.315 19.4804C249.883 19.3301 249.511 19.0981 249.197 18.7844C248.89 18.4641 248.648 18.0557 248.472 17.559C248.302 17.0557 248.217 16.4512 248.217 15.7454V8.89297H251.04V15.765C251.04 16.0787 251.076 16.3434 251.148 16.559C251.226 16.7747 251.334 16.9512 251.471 17.0884C251.609 17.2257 251.769 17.3237 251.952 17.3825C252.141 17.4413 252.35 17.4707 252.579 17.4707C253.161 17.4707 253.618 17.3531 253.952 17.1178C254.291 16.8826 254.53 16.5623 254.667 16.1571C254.811 15.7454 254.883 15.2879 254.883 14.7847ZM265.284 16.5689C265.284 16.3663 265.225 16.1833 265.108 16.0199C264.99 15.8565 264.771 15.7062 264.451 15.5689C264.137 15.4251 263.683 15.2944 263.088 15.1768C262.552 15.0592 262.052 14.9121 261.588 14.7357C261.131 14.5527 260.732 14.3337 260.392 14.0788C260.059 13.824 259.798 13.5233 259.608 13.177C259.419 12.824 259.324 12.4221 259.324 11.9712C259.324 11.5268 259.419 11.1085 259.608 10.7164C259.804 10.3242 260.082 9.97785 260.441 9.67722C260.807 9.37006 261.252 9.13151 261.775 8.96159C262.304 8.78513 262.899 8.6969 263.559 8.6969C264.48 8.6969 265.271 8.84395 265.931 9.13805C266.598 9.43214 267.107 9.83734 267.46 10.3536C267.82 10.8634 268 11.4451 268 12.0986H265.176C265.176 11.8241 265.117 11.579 265 11.3634C264.889 11.1412 264.712 10.968 264.47 10.8438C264.235 10.7131 263.928 10.6477 263.549 10.6477C263.235 10.6477 262.964 10.7033 262.735 10.8144C262.507 10.919 262.33 11.0627 262.206 11.2457C262.088 11.4222 262.029 11.6182 262.029 11.8339C262.029 11.9973 262.062 12.1444 262.127 12.2751C262.199 12.3992 262.314 12.5136 262.471 12.6182C262.627 12.7227 262.83 12.8208 263.078 12.9123C263.333 12.9972 263.647 13.0757 264.019 13.1475C264.784 13.3044 265.467 13.5103 266.068 13.7651C266.67 14.0135 267.147 14.3533 267.5 14.7847C267.853 15.2095 268.029 15.7683 268.029 16.461C268.029 16.9316 267.924 17.3629 267.715 17.755C267.506 18.1472 267.206 18.4903 266.813 18.7844C266.421 19.0719 265.951 19.2974 265.402 19.4608C264.859 19.6176 264.248 19.6961 263.569 19.6961C262.582 19.6961 261.745 19.5196 261.059 19.1667C260.379 18.8138 259.863 18.3661 259.51 17.8237C259.164 17.2747 258.99 16.7126 258.99 16.1375H261.667C261.68 16.5231 261.778 16.8335 261.961 17.0688C262.15 17.3041 262.389 17.474 262.676 17.5786C262.971 17.6831 263.288 17.7354 263.627 17.7354C263.993 17.7354 264.297 17.6864 264.539 17.5884C264.781 17.4838 264.964 17.3466 265.088 17.1766C265.219 17.0002 265.284 16.7976 265.284 16.5689ZM275.058 8.89297V10.8928H268.882V8.89297H275.058ZM270.411 6.27552H273.234V16.3042C273.234 16.6113 273.274 16.8466 273.352 17.01C273.437 17.1734 273.561 17.2878 273.725 17.3531C273.888 17.4119 274.094 17.4413 274.342 17.4413C274.519 17.4413 274.676 17.4348 274.813 17.4217C274.957 17.4021 275.077 17.3825 275.175 17.3629L275.185 19.4412C274.943 19.5196 274.682 19.5817 274.401 19.6274C274.12 19.6732 273.81 19.6961 273.47 19.6961C272.849 19.6961 272.306 19.5948 271.842 19.3922C271.385 19.183 271.032 18.8497 270.784 18.3922C270.535 17.9348 270.411 17.3335 270.411 16.5885V6.27552ZM279.489 10.932V23.5781H276.666V8.89297H279.283L279.489 10.932ZM286.204 14.0788V14.2847C286.204 15.0559 286.113 15.7715 285.93 16.4316C285.753 17.0917 285.492 17.6668 285.145 18.157C284.799 18.6406 284.368 19.0196 283.851 19.2941C283.342 19.5621 282.753 19.6961 282.087 19.6961C281.44 19.6961 280.878 19.5654 280.401 19.3039C279.923 19.0425 279.522 18.6765 279.195 18.206C278.875 17.7289 278.616 17.1766 278.42 16.5492C278.224 15.9218 278.074 15.2487 277.969 14.5298V13.9906C278.074 13.2194 278.224 12.5136 278.42 11.8731C278.616 11.2261 278.875 10.6673 279.195 10.1968C279.522 9.7197 279.92 9.35045 280.391 9.08903C280.868 8.82761 281.427 8.6969 282.067 8.6969C282.74 8.6969 283.332 8.82435 283.841 9.07923C284.358 9.33411 284.789 9.7001 285.136 10.1772C285.488 10.6543 285.753 11.2229 285.93 11.8829C286.113 12.543 286.204 13.275 286.204 14.0788ZM283.371 14.2847V14.0788C283.371 13.6279 283.332 13.2129 283.253 12.8338C283.181 12.4483 283.064 12.1117 282.9 11.8241C282.744 11.5366 282.534 11.3144 282.273 11.1575C282.018 10.9941 281.708 10.9124 281.342 10.9124C280.956 10.9124 280.626 10.9745 280.352 11.0987C280.084 11.2229 279.865 11.4026 279.695 11.6379C279.525 11.8731 279.397 12.1542 279.312 12.4809C279.227 12.8077 279.175 13.177 279.156 13.5887V14.9513C279.188 15.435 279.28 15.8696 279.43 16.2552C279.58 16.6342 279.812 16.9348 280.126 17.157C280.44 17.3792 280.852 17.4903 281.361 17.4903C281.734 17.4903 282.048 17.4087 282.302 17.2453C282.557 17.0753 282.763 16.8433 282.92 16.5492C283.083 16.2552 283.198 15.9153 283.263 15.5297C283.335 15.1441 283.371 14.7291 283.371 14.2847ZM290.939 8.89297V19.5H288.106V8.89297H290.939ZM287.929 6.12847C287.929 5.71674 288.073 5.3769 288.361 5.10894C288.648 4.84099 289.034 4.70701 289.518 4.70701C289.995 4.70701 290.377 4.84099 290.665 5.10894C290.959 5.3769 291.106 5.71674 291.106 6.12847C291.106 6.54021 290.959 6.88005 290.665 7.148C290.377 7.41596 289.995 7.54993 289.518 7.54993C289.034 7.54993 288.648 7.41596 288.361 7.148C288.073 6.88005 287.929 6.54021 287.929 6.12847ZM296.252 4.44233V19.5H293.419V4.44233H296.252ZM298.135 14.3043V14.0985C298.135 13.3207 298.246 12.6051 298.468 11.9516C298.69 11.2915 299.014 10.7196 299.438 10.236C299.863 9.75238 300.386 9.37659 301.007 9.10864C301.628 8.83415 302.34 8.6969 303.144 8.6969C303.948 8.6969 304.663 8.83415 305.291 9.10864C305.918 9.37659 306.444 9.75238 306.869 10.236C307.3 10.7196 307.627 11.2915 307.849 11.9516C308.072 12.6051 308.183 13.3207 308.183 14.0985V14.3043C308.183 15.0755 308.072 15.7911 307.849 16.4512C307.627 17.1048 307.3 17.6766 306.869 18.1668C306.444 18.6504 305.922 19.0262 305.301 19.2941C304.68 19.5621 303.967 19.6961 303.164 19.6961C302.36 19.6961 301.644 19.5621 301.017 19.2941C300.396 19.0262 299.87 18.6504 299.438 18.1668C299.014 17.6766 298.69 17.1048 298.468 16.4512C298.246 15.7911 298.135 15.0755 298.135 14.3043ZM300.958 14.0985V14.3043C300.958 14.7487 300.997 15.1637 301.075 15.5493C301.154 15.9349 301.278 16.2748 301.448 16.5689C301.624 16.8564 301.853 17.0819 302.134 17.2453C302.415 17.4087 302.758 17.4903 303.164 17.4903C303.556 17.4903 303.892 17.4087 304.173 17.2453C304.454 17.0819 304.68 16.8564 304.85 16.5689C305.02 16.2748 305.144 15.9349 305.222 15.5493C305.307 15.1637 305.35 14.7487 305.35 14.3043V14.0985C305.35 13.6671 305.307 13.2619 305.222 12.8829C305.144 12.4973 305.016 12.1574 304.84 11.8633C304.67 11.5627 304.444 11.3274 304.163 11.1575C303.882 10.9876 303.543 10.9026 303.144 10.9026C302.745 10.9026 302.405 10.9876 302.124 11.1575C301.85 11.3274 301.624 11.5627 301.448 11.8633C301.278 12.1574 301.154 12.4973 301.075 12.8829C300.997 13.2619 300.958 13.6671 300.958 14.0985ZM315.114 8.89297V10.8928H308.938V8.89297H315.114ZM310.467 6.27552H313.29V16.3042C313.29 16.6113 313.329 16.8466 313.408 17.01C313.493 17.1734 313.617 17.2878 313.78 17.3531C313.944 17.4119 314.15 17.4413 314.398 17.4413C314.574 17.4413 314.731 17.4348 314.869 17.4217C315.012 17.4021 315.133 17.3825 315.231 17.3629L315.241 19.4412C314.999 19.5196 314.738 19.5817 314.457 19.6274C314.176 19.6732 313.865 19.6961 313.525 19.6961C312.905 19.6961 312.362 19.5948 311.898 19.3922C311.441 19.183 311.088 18.8497 310.839 18.3922C310.591 17.9348 310.467 17.3335 310.467 16.5885V6.27552Z" fill="white"></path><defs><clipPath id="clip0_37_1026"><rect width="100.919" height="18.9223" fill="white" transform="translate(0 3.03888)"></rect></clipPath></defs></svg>